<svg width="86" height="18" viewBox="0 0 86 18" fill="none" xmlns="http://www.w3.org/2000/svg">
<path d="M7.16912 4.63741C7.08315 4.00773 6.58992 2.93404 5.03982 2.93404C3.97598 2.93404 3.29093 3.64605 3.29093 4.38531C3.29093 5.03827 3.6751 5.51521 4.55518 5.68214L6.27023 6.02678C8.70901 6.50543 9.97326 8.15939 9.97326 10.0893C9.97326 12.214 8.29744 14.371 5.24507 14.371C1.70376 14.371 0.180531 11.9437 0 10.0365L2.62253 9.36935C2.72999 10.6134 3.52465 11.6973 5.27838 11.6973C6.39757 11.6973 7.08262 11.1261 7.08262 10.2875C7.08262 9.60214 6.55607 9.10476 5.71305 8.92477L3.96147 8.58012C1.78758 8.14236 0.473357 6.61842 0.473357 4.61186C0.473357 2.05681 2.60265 0.259766 5.06131 0.259766C8.25392 0.259766 9.46713 2.28222 9.73578 3.86692L7.16912 4.63741Z" fill="white"/>
<path d="M11.3149 14.0907V4.59955H13.9316V5.68459C14.2277 5.25342 14.6173 4.90365 15.0679 4.66465C15.5184 4.42565 16.0167 4.30441 16.5208 4.31112C17.0521 4.26509 17.5847 4.3811 18.0555 4.64538C18.5262 4.90967 18.9153 5.31113 19.1766 5.80213C19.4708 5.31414 19.8835 4.91843 20.3715 4.65619C20.8596 4.39396 21.4053 4.2748 21.9518 4.31112C23.6534 4.31112 25.2739 5.36096 25.2739 7.93814V14.0907L22.6234 14.0873V8.58542C22.6457 8.37742 22.6247 8.16678 22.562 7.96824C22.4992 7.76969 22.3962 7.58803 22.2601 7.43595C22.1239 7.28388 21.958 7.16507 21.7739 7.08784C21.5898 7.0106 21.3919 6.9768 21.1942 6.9888C20.9926 6.98321 20.7922 7.02169 20.6054 7.10184C20.4186 7.18198 20.2495 7.30206 20.1087 7.45454C19.9679 7.60701 19.8584 7.7886 19.7871 7.98789C19.7159 8.18719 19.6844 8.3999 19.6946 8.61267V14.0879L16.9882 14.0913V8.58372C17.0106 8.37427 16.9891 8.16219 16.9253 7.96248C16.8615 7.76277 16.757 7.5803 16.6191 7.42799C16.4813 7.27568 16.3134 7.15725 16.1274 7.08106C15.9415 7.00487 15.7419 6.9728 15.5429 6.9871C15.3416 6.98342 15.1417 7.02378 14.9559 7.10563C14.77 7.18747 14.6022 7.30905 14.463 7.46272C14.3237 7.61639 14.216 7.79883 14.1467 7.99858C14.0773 8.19833 14.0478 8.41108 14.06 8.62346V14.0896L11.3149 14.0907Z" fill="white"/>
<path d="M28.3206 7.96775e-05C28.6396 -0.00318388 28.9522 0.0938749 29.2189 0.278913C29.4855 0.463951 29.6941 0.728609 29.818 1.03923C29.9419 1.34985 29.9756 1.6924 29.9148 2.02331C29.854 2.35422 29.7014 2.65855 29.4765 2.8976C29.2516 3.13664 28.9645 3.29959 28.6517 3.36574C28.3389 3.43188 28.0146 3.39823 27.7199 3.26906C27.4253 3.13989 27.1737 2.92103 26.997 2.64033C26.8204 2.35962 26.7268 2.02975 26.728 1.69265C26.7307 1.24628 26.899 0.818848 27.1969 0.50231C27.4947 0.185771 27.8982 0.00542747 28.3206 7.96775e-05ZM26.9671 4.59632H29.7181V14.0897H26.9671V4.59632Z" fill="white"/>
<path d="M31.4385 0.265137H34.1889V14.0874H31.4385V0.265137Z" fill="white"/>
<path d="M44.2203 11.3602C43.7781 13.0022 42.3586 14.3734 40.0751 14.3734C38.8428 14.3497 37.6671 13.8226 36.7947 12.9027C35.9222 11.9828 35.4208 10.7416 35.3955 9.43942C35.3703 8.13728 35.8232 6.87542 36.6593 5.91854C37.4954 4.96167 38.6497 4.38414 39.88 4.30713C42.6584 4.30713 44.3734 6.12405 44.3734 9.17761C44.3779 9.47937 44.3599 9.78104 44.3197 10.0798H38.0763C38.1287 10.6031 38.3695 11.0851 38.7489 11.4258C39.1283 11.7666 39.6172 11.9401 40.1143 11.9104C40.503 11.9491 40.8926 11.8479 41.22 11.6232C41.5474 11.3986 41.7934 11.0636 41.918 10.6726L44.2203 11.3602ZM41.7176 8.2084C41.681 7.47936 41.2217 6.59985 39.9193 6.59985C39.4834 6.57639 39.0554 6.72989 38.7231 7.02892C38.3908 7.32795 38.1792 7.7499 38.1317 8.2084H41.7176Z" fill="white"/>
<path d="M47.5882 13.9025C47.6764 14.3658 47.9192 14.7801 48.2724 15.07C48.6256 15.3599 49.0656 15.5059 49.5122 15.4815C50.8877 15.4815 51.7366 14.7792 51.7366 13.0548V12.6193C51.4476 12.9891 51.0781 13.2793 50.6597 13.4652C50.2414 13.6511 49.7866 13.7271 49.3344 13.6867C46.9509 13.6867 45.1639 11.6995 45.1639 9.06154C45.1417 8.46591 45.2329 7.87163 45.4319 7.3139C45.631 6.75616 45.9339 6.2463 46.3228 5.81449C46.7117 5.38269 47.1786 5.03773 47.6959 4.80004C48.2132 4.56234 48.7703 4.43674 49.3344 4.43066C50.799 4.43066 51.5749 5.1069 51.8231 5.60769V4.5993H54.4462V12.9043C54.4462 15.6297 52.9987 18.0002 49.6466 18.0002C47.0595 18.0002 45.4148 16.323 45.1639 14.6207L47.5882 13.9025ZM51.7565 9.06211C51.764 8.79018 51.7197 8.51944 51.6264 8.26591C51.533 8.01238 51.3925 7.78121 51.2132 7.58609C51.0338 7.39097 50.8192 7.23585 50.5821 7.12993C50.345 7.02401 50.0902 6.96944 49.8327 6.96944C49.5753 6.96944 49.3205 7.02401 49.0834 7.12993C48.8463 7.23585 48.6317 7.39097 48.4523 7.58609C48.2729 7.78121 48.1324 8.01238 48.0391 8.26591C47.9457 8.51944 47.9015 8.79018 47.9089 9.06211C47.891 9.33763 47.9281 9.61405 48.0177 9.87348C48.1072 10.1329 48.2474 10.3696 48.429 10.5681C48.6106 10.7667 48.8297 10.9228 49.072 11.0262C49.3143 11.1296 49.5745 11.1782 49.8357 11.1686C50.0972 11.1804 50.358 11.1334 50.601 11.0307C50.844 10.9279 51.0636 10.7718 51.2452 10.5727C51.4268 10.3735 51.5663 10.1358 51.6544 9.87544C51.7426 9.61503 51.7774 9.3378 51.7565 9.06211Z" fill="white"/>
<path d="M62.5202 12.8711C62.2969 13.3392 61.9491 13.7281 61.5196 13.9904C61.0902 14.2526 60.5976 14.3767 60.1024 14.3474C57.4696 14.3474 55.6455 12.2352 55.6455 9.30827C55.6455 6.48069 57.3546 4.30322 60.0105 4.30322C61.6224 4.30322 62.3235 5.24518 62.5051 5.68068V4.59563H65.161V12.3857C65.1574 12.9523 65.1816 13.5188 65.2335 14.0828H62.5911C62.5496 13.709 62.5264 13.3332 62.5218 12.9569L62.5202 12.8711ZM60.4564 11.8554C61.5622 11.8554 62.503 10.9344 62.503 9.33098C62.503 7.6844 61.5848 6.82817 60.4564 6.82817C59.29 6.82817 58.405 7.68326 58.405 9.33098C58.405 10.8964 59.3238 11.8554 60.4564 11.8554Z" fill="white"/>
<path d="M70.323 4.60022H72.0692V7.14221H70.323V10.6909C70.323 11.4756 70.7216 11.6811 71.3175 11.6811C71.5596 11.6762 71.8006 11.6443 72.0364 11.5857V13.9977C71.5846 14.1972 71.0963 14.2876 70.6072 14.2623C68.7508 14.2623 67.6096 13.0977 67.6096 11.2053V7.14277H66.0278V4.59909H66.4733C66.6655 4.61185 66.8581 4.57992 67.0374 4.50554C67.2167 4.43116 67.3785 4.31614 67.5112 4.16858C67.6439 4.02102 67.7444 3.8445 67.8056 3.65147C67.8668 3.45843 67.8872 3.25357 67.8654 3.0513V1.82715H70.323V4.60022Z" fill="white"/>
<path d="M81.5213 11.3602C81.085 13.0022 79.6617 14.3734 77.3842 14.3734C76.1519 14.3497 74.9762 13.8226 74.1037 12.9027C73.2313 11.9828 72.7298 10.7416 72.7046 9.43942C72.6794 8.13728 73.1323 6.87542 73.9684 5.91854C74.8045 4.96167 75.9588 4.38414 77.1891 4.30713C79.9675 4.30713 81.6825 6.12405 81.6825 9.17761C81.6823 9.47911 81.6656 9.78035 81.6325 10.0798H75.3774C75.4298 10.603 75.6706 11.0849 76.05 11.4257C76.4294 11.7664 76.9182 11.94 77.4153 11.9104C77.8048 11.9495 78.1954 11.8486 78.5238 11.624C78.8522 11.3993 79.0993 11.0641 79.2249 10.6726L81.5213 11.3602ZM79.0251 8.2084C78.9858 7.47936 78.5238 6.59985 77.2208 6.59985C76.7849 6.57888 76.3577 6.73312 76.025 7.03155C75.6924 7.32998 75.479 7.75046 75.4279 8.2084H79.0251Z" fill="white"/>
<path d="M84.2875 1.82828C84.6232 1.82355 84.9527 1.92452 85.2339 2.11832C85.5152 2.31213 85.7355 2.59 85.8668 2.91656C85.9981 3.24312 86.0344 3.60359 85.9712 3.95205C85.908 4.30052 85.7481 4.62122 85.5118 4.87331C85.2755 5.1254 84.9736 5.29748 84.6445 5.36763C84.3153 5.43778 83.9739 5.40283 83.6636 5.26723C83.3534 5.13163 83.0883 4.90151 82.9022 4.60618C82.7161 4.31085 82.6174 3.96367 82.6187 3.60887C82.6185 3.13952 82.7938 2.6891 83.1063 2.35563C83.4188 2.02215 83.8434 1.83263 84.2875 1.82828ZM84.2875 5.04821C84.5585 5.05964 84.8266 4.98519 85.0573 4.8344C85.2881 4.68362 85.4708 4.4634 85.5822 4.20202C85.6936 3.94063 85.7285 3.65003 85.6824 3.36754C85.6363 3.08505 85.5114 2.82356 85.3237 2.61666C85.1359 2.40976 84.8939 2.2669 84.6287 2.20643C84.3636 2.14596 84.0874 2.17063 83.8356 2.27729C83.5838 2.38395 83.3679 2.56772 83.2157 2.80499C83.0635 3.04226 82.9819 3.32221 82.9813 3.60887C82.9751 3.79468 83.0043 3.97992 83.067 4.15362C83.1298 4.32733 83.2249 4.48597 83.3466 4.62016C83.4684 4.75436 83.6144 4.86138 83.776 4.93491C83.9376 5.00843 84.1116 5.04696 84.2875 5.04821ZM84.0726 4.57297H83.7335V2.62773H84.3681C84.4472 2.62322 84.5263 2.63555 84.6008 2.66399C84.6753 2.69243 84.7436 2.73639 84.8017 2.79327C84.8597 2.85016 84.9064 2.91879 84.9389 2.99511C84.9714 3.07143 84.9891 3.15387 84.9908 3.23753C84.9909 3.3661 84.9512 3.49117 84.8778 3.59368C84.8043 3.69619 84.7012 3.77052 84.5841 3.80532L85.0005 4.57297H84.5975L84.2155 3.84734H84.0726V4.57297ZM84.317 3.52313C84.5228 3.52313 84.6394 3.41922 84.6394 3.23924C84.6394 3.04959 84.5234 2.94342 84.317 2.94342H84.0726V3.52029L84.317 3.52313Z" fill="white"/>
</svg>
